<?xml version="1.0" standalone="yes"?>
<svg xmlns="http://www.w3.org/2000/svg" width="512" height="512">
<path style="fill:#ffffff; stroke:none;" d="M0 0L0 26L1 26C6.51401 15.4014 15.4936 16 26 16L77 16C85.1103 16 94.4373 14.3668 100.956 20.2137C106.912 25.5556 107.951 33.647 109.884 41C113.248 53.7955 118.233 66.8892 120 80L415 80L483 80C494.254 80 504.988 78.4441 511 90L512 90L512 0L0 0z"/>
<path style="fill:#455b65; stroke:none;" d="M78 48C81.6972 75.4561 92.615 103.259 99.8488 130C113.72 181.278 126.981 232.722 140.849 284C146.064 303.285 151.034 322.673 156.116 342C158.152 349.745 159.092 360.283 166.043 365.347C171.338 369.205 178.826 368 185 368L226 368L386 368C402.091 368 420.113 370.292 436 367.786C441.97 366.845 446.845 361.97 447.786 356C452.323 327.227 406.425 336 389 336L249 336L209 336C203.832 336 195.954 337.467 191.144 335.397C185.887 333.133 184.653 320.05 183.374 315C178.455 295.579 172.366 276.428 167.37 257C152.943 200.893 137.936 144.817 122.424 89C118.102 73.4456 114.756 57.5874 110.424 42C108.622 35.515 107.9 27.4505 103.581 22.0432C97.804 14.8101 89.2706 16 81 16L29 16C22.2763 16 12.9872 14.346 7.01543 18.0092C-2.95828 24.1274 -2.5322 41.2027 8.00386 46.5432C16.94 51.0728 33.1313 48 43 48L78 48z"/>
<path style="fill:#ffffff; stroke:none;" d="M0 38L0 512L512 512L512 103L511 103C510.372 117.597 506.017 132.623 503.424 147L487.424 235C485.008 248.399 485.235 273.953 474.812 283.66C467.642 290.337 456.924 288.649 448 289.039C429.003 289.871 410.032 291.777 391 292.004C320.716 292.84 250.227 299.985 180 303C181.61 310.024 183.748 330.675 189.564 334.972C192.662 337.261 199.351 336 203 336L239 336L375 336C394.29 336 415.959 333.21 435 336.214C441.283 337.205 446.805 342.71 447.786 349C449.007 356.824 444.814 364.896 437 367.347C423.341 371.631 403.311 368 389 368L230 368L187 368C180.968 368 173.392 369.242 168.004 365.991C159.781 361.03 158.56 350.515 156.37 342C151.473 322.954 146.117 304.02 141.116 285C120.419 206.281 94.4516 127.706 78 48L32 48L10 46.9908L0 38z"/>
<path style="fill:#ffc107; stroke:none;" d="M120 80C131.165 134.092 148.425 187.678 162.849 241C166.812 255.652 170.511 270.375 174.576 285C175.882 289.7 176.287 297.802 179.843 301.396C182.989 304.574 192.773 302.002 197 302C213.838 301.992 231.241 300.765 248 299.17C301.521 294.076 356.28 293.392 410 291.039C423.314 290.456 436.696 289.341 450 289.015C457.79 288.824 467.178 290.018 473.906 285.146C484.042 277.805 483.632 256.326 485.803 245C493.135 206.751 500.072 168.368 506.75 130C508.863 117.862 517.902 94.3298 507.786 84.2137C501.12 77.5477 488.604 80 480 80L408 80L120 80M91 99L92 100L91 99M92.3333 102.667L92.6667 103.333L92.3333 102.667M93.3333 106.667L93.6667 107.333L93.3333 106.667M94 110L95 111L94 110M95.3333 113.667L95.6667 114.333L95.3333 113.667M96.3333 117.667L96.6667 118.333L96.3333 117.667M97.3333 121.667L97.6667 122.333L97.3333 121.667M98 125L99 126L98 125M99.3333 128.667L99.6667 129.333L99.3333 128.667M100.333 132.667L100.667 133.333L100.333 132.667M101.333 136.667L101.667 137.333L101.333 136.667M102 140L103 141L102 140M103.333 143.667L103.667 144.333L103.333 143.667z"/>
<path style="fill:#fed55d; stroke:none;" d="M203 144L204 145L203 144z"/>
<path style="fill:#fce59f; stroke:none;" d="M204.667 144.333L205.333 144.667L204.667 144.333z"/>
<path style="fill:#ffffff; stroke:none;" d="M206 144.508C198.73 145.575 193.825 150.943 192.468 158C190.049 170.584 192 185.197 192 198C192 207.253 190.53 217.962 192.684 227C194.547 234.819 201.718 240.708 210 239.492C217.27 238.425 222.175 233.057 223.532 226C225.951 213.416 224 198.803 224 186C224 176.747 225.47 166.038 223.316 157C221.453 149.181 214.282 143.292 206 144.508z"/>
<path style="fill:#fce59f; stroke:none;" d="M210.667 144.333L211.333 144.667L210.667 144.333z"/>
<path style="fill:#fed55d; stroke:none;" d="M212 144L213 145L212 144M299 144L300 145L299 144z"/>
<path style="fill:#fce59f; stroke:none;" d="M300.667 144.333L301.333 144.667L300.667 144.333z"/>
<path style="fill:#ffffff; stroke:none;" d="M302 144.508C294.73 145.575 289.825 150.943 288.468 158C286.049 170.584 288 185.197 288 198C288 207.253 286.53 217.962 288.684 227C290.547 234.819 297.717 240.708 306 239.492C313.27 238.425 318.175 233.057 319.532 226C321.951 213.416 320 198.803 320 186C320 176.747 321.47 166.038 319.316 157C317.453 149.181 310.282 143.292 302 144.508z"/>
<path style="fill:#fce59f; stroke:none;" d="M306.667 144.333L307.333 144.667L306.667 144.333z"/>
<path style="fill:#fed55d; stroke:none;" d="M308 144L309 145L308 144M395 144L396 145L395 144z"/>
<path style="fill:#fce59f; stroke:none;" d="M396.667 144.333L397.333 144.667L396.667 144.333z"/>
<path style="fill:#ffffff; stroke:none;" d="M398 144.508C390.73 145.575 385.825 150.943 384.468 158C382.049 170.584 384 185.197 384 198C384 207.253 382.53 217.962 384.684 227C386.547 234.819 393.718 240.708 402 239.492C409.27 238.425 414.175 233.057 415.532 226C417.951 213.416 416 198.803 416 186C416 176.747 417.47 166.038 415.316 157C413.453 149.181 406.282 143.292 398 144.508z"/>
<path style="fill:#fce59f; stroke:none;" d="M402.667 144.333L403.333 144.667L402.667 144.333z"/>
<path style="fill:#fed55d; stroke:none;" d="M404 144L405 145L404 144z"/>
<path style="fill:#fce59f; stroke:none;" d="M201 145L202 146L201 145M214 145L215 146L214 145M297 145L298 146L297 145M310 145L311 146L310 145M393 145L394 146L393 145M406 145L407 146L406 145M199 146L200 147L199 146M216 146L217 147L216 146M295 146L296 147L295 146M312 146L313 147L312 146M391 146L392 147L391 146M408 146L409 147L408 146z"/>
<path style="fill:#ffc107; stroke:none;" d="M104.333 147.667L104.667 148.333L104.333 147.667z"/>
<path style="fill:#fce59f; stroke:none;" d="M198 147L199 148L198 147M217 147L218 148L217 147M294 147L295 148L294 147M313 147L314 148L313 147M390 147L391 148L390 147M409 147L410 148L409 147z"/>
<path style="fill:#fed55d; stroke:none;" d="M196 148L197 149L196 148M219 148L220 149L219 148M292 148L293 149L292 148M315 148L316 149L315 148M388 148L389 149L388 148M411 148L412 149L411 148z"/>
<path style="fill:#fce59f; stroke:none;" d="M195 150L196 151L195 150M220 150L221 151L220 150M291 150L292 151L291 150M316 150L317 151L316 150M387 150L388 151L387 150M412 150L413 151L412 150z"/>
<path style="fill:#ffc107; stroke:none;" d="M105.333 151.667L105.667 152.333L105.333 151.667z"/>
<path style="fill:#fce59f; stroke:none;" d="M194 151L195 152L194 151M221 151L222 152L221 151M290 151L291 152L290 151M317 151L318 152L317 151M386 151L387 152L386 151M413 151L414 152L413 151M193 153L194 154L193 153M222 153L223 154L222 153M289 153L290 154L289 153M318 153L319 154L318 153M385 153L386 154L385 153M414 153L415 154L414 153z"/>
<path style="fill:#ffc107; stroke:none;" d="M106 155L107 156L106 155z"/>
<path style="fill:#fed55d; stroke:none;" d="M192 155L193 156L192 155M223 155L224 156L223 155M288 155L289 156L288 155M319 155L320 156L319 155M384 155L385 156L384 155M415 155L416 156L415 155z"/>
<path style="fill:#fce59f; stroke:none;" d="M192.333 156.667L192.667 157.333L192.333 156.667M223.333 156.667L223.667 157.333L223.333 156.667M288.333 156.667L288.667 157.333L288.333 156.667M319.333 156.667L319.667 157.333L319.333 156.667M384.333 156.667L384.667 157.333L384.333 156.667M415.333 156.667L415.667 157.333L415.333 156.667z"/>
<path style="fill:#ffc107; stroke:none;" d="M107.333 158.667L107.667 159.333L107.333 158.667M108.333 162.667L108.667 163.333L108.333 162.667M109.333 166.667L109.667 167.333L109.333 166.667M110 170L111 171L110 170M111.333 173.667L111.667 174.333L111.333 173.667M112.333 177.667L112.667 178.333L112.333 177.667M113 181L114 182L113 181M114 185L115 186L114 185M115.333 188.667L115.667 189.333L115.333 188.667M116.333 192.667L116.667 193.333L116.333 192.667M117 196L118 197L117 196M118 200L119 201L118 200M119.333 203.667L119.667 204.333L119.333 203.667M120.333 207.667L120.667 208.333L120.333 207.667M121 211L122 212L121 211M122 215L123 216L122 215M123.333 218.667L123.667 219.333L123.333 218.667M124.333 222.667L124.667 223.333L124.333 222.667M125 226L126 227L125 226z"/>
<path style="fill:#fce59f; stroke:none;" d="M192.333 226.667L192.667 227.333L192.333 226.667M223.333 226.667L223.667 227.333L223.333 226.667M288.333 226.667L288.667 227.333L288.333 226.667M319.333 226.667L319.667 227.333L319.333 226.667M384.333 226.667L384.667 227.333L384.333 226.667M415.333 226.667L415.667 227.333L415.333 226.667z"/>
<path style="fill:#fed55d; stroke:none;" d="M192 228L193 229L192 228M223 228L224 229L223 228M288 228L289 229L288 228M319 228L320 229L319 228M384 228L385 229L384 228M415 228L416 229L415 228z"/>
<path style="fill:#ffc107; stroke:none;" d="M126 230L127 231L126 230z"/>
<path style="fill:#fce59f; stroke:none;" d="M193 230L194 231L193 230M222 230L223 231L222 230M289 230L290 231L289 230M318 230L319 231L318 230M385 230L386 231L385 230M414 230L415 231L414 230M194 232L195 233L194 232M221 232L222 233L221 232M290 232L291 233L290 232M317 232L318 233L317 232M386 232L387 233L386 232M413 232L414 233L413 232z"/>
<path style="fill:#ffc107; stroke:none;" d="M127.333 233.667L127.667 234.333L127.333 233.667z"/>
<path style="fill:#fce59f; stroke:none;" d="M195 233L196 234L195 233M220 233L221 234L220 233M291 233L292 234L291 233M316 233L317 234L316 233M387 233L388 234L387 233M412 233L413 234L412 233z"/>
<path style="fill:#fed55d; stroke:none;" d="M196 235L197 236L196 235M219 235L220 236L219 235M292 235L293 236L292 235M315 235L316 236L315 235M388 235L389 236L388 235M411 235L412 236L411 235z"/>
<path style="fill:#fce59f; stroke:none;" d="M198 236L199 237L198 236M217 236L218 237L217 236M294 236L295 237L294 236M313 236L314 237L313 236M390 236L391 237L390 236M409 236L410 237L409 236z"/>
<path style="fill:#ffc107; stroke:none;" d="M128.333 237.667L128.667 238.333L128.333 237.667z"/>
<path style="fill:#fce59f; stroke:none;" d="M199 237L200 238L199 237M216 237L217 238L216 237M295 237L296 238L295 237M312 237L313 238L312 237M391 237L392 238L391 237M408 237L409 238L408 237M201 238L202 239L201 238M214 238L215 239L214 238M297 238L298 239L297 238M310 238L311 239L310 238M393 238L394 239L393 238M406 238L407 239L406 238z"/>
<path style="fill:#fed55d; stroke:none;" d="M203 239L204 240L203 239z"/>
<path style="fill:#fce59f; stroke:none;" d="M204.667 239.333L205.333 239.667L204.667 239.333M210.667 239.333L211.333 239.667L210.667 239.333z"/>
<path style="fill:#fed55d; stroke:none;" d="M212 239L213 240L212 239M299 239L300 240L299 239z"/>
<path style="fill:#fce59f; stroke:none;" d="M300.667 239.333L301.333 239.667L300.667 239.333M306.667 239.333L307.333 239.667L306.667 239.333z"/>
<path style="fill:#fed55d; stroke:none;" d="M308 239L309 240L308 239M395 239L396 240L395 239z"/>
<path style="fill:#fce59f; stroke:none;" d="M396.667 239.333L397.333 239.667L396.667 239.333M402.667 239.333L403.333 239.667L402.667 239.333z"/>
<path style="fill:#fed55d; stroke:none;" d="M404 239L405 240L404 239z"/>
<path style="fill:#ffc107; stroke:none;" d="M129 241L130 242L129 241M130 245L131 246L130 245M131.333 248.667L131.667 249.333L131.333 248.667M132.333 252.667L132.667 253.333L132.333 252.667M133 256L134 257L133 256M134 260L135 261L134 260M135.333 263.667L135.667 264.333L135.333 263.667M136 267L137 268L136 267M137 271L138 272L137 271M138 275L139 276L138 275M139 279L140 280L139 279M140 282L141 283L140 282M141 286L142 287L141 286M142 290L143 291L142 290z"/>
<path style="fill:#455b65; stroke:none;" d="M198 400.515C191.634 401.82 185.346 404.539 180 408.221C137.523 437.475 168.045 505.726 218 495.485C224.366 494.18 230.654 491.461 236 487.779C278.477 458.525 247.955 390.274 198 400.515M390 400.515C383.634 401.82 377.346 404.539 372 408.221C329.523 437.475 360.045 505.726 410 495.485C416.366 494.18 422.654 491.461 428 487.779C470.477 458.525 439.955 390.274 390 400.515z"/>
</svg>
